<mxfile host="Electron" agent="Mozilla/5.0 (Macintosh; Intel Mac OS X 10_15_7) AppleWebKit/537.36 (KHTML, like Gecko) draw.io/26.0.9 Chrome/128.0.6613.186 Electron/32.2.5 Safari/537.36" version="26.0.9">
  <diagram name="Page-1" id="a7904f86-f2b4-8e86-fa97-74104820619b">
    <mxGraphModel dx="1266" dy="772" grid="1" gridSize="10" guides="1" tooltips="1" connect="1" arrows="1" fold="1" page="1" pageScale="1" pageWidth="2336" pageHeight="1654" background="#000000" math="0" shadow="0">
      <root>
        <mxCell id="0" />
        <mxCell id="1" parent="0" />
        <mxCell id="WV2uRHjkIGPzRocQNmu5-25" style="edgeStyle=orthogonalEdgeStyle;rounded=0;orthogonalLoop=1;jettySize=auto;html=1;" edge="1" parent="1" source="qw6tBekGPEzTEi5tJ91N-15" target="WV2uRHjkIGPzRocQNmu5-1">
          <mxGeometry relative="1" as="geometry" />
        </mxCell>
        <mxCell id="qw6tBekGPEzTEi5tJ91N-15" value="&lt;p style=&quot;margin: 0px ; margin-top: 4px ; text-align: center ; text-decoration: underline&quot;&gt;&lt;b&gt;event_raw&lt;/b&gt;&lt;/p&gt;&lt;hr&gt;&lt;p style=&quot;margin: 0px ; margin-left: 8px&quot;&gt;id&lt;/p&gt;&lt;p style=&quot;margin: 0px ; margin-left: 8px&quot;&gt;user_id&lt;/p&gt;&lt;p style=&quot;margin: 0px ; margin-left: 8px&quot;&gt;session_id&lt;/p&gt;&lt;p style=&quot;margin: 0px ; margin-left: 8px&quot;&gt;created_at&lt;/p&gt;&lt;p style=&quot;margin: 0px ; margin-left: 8px&quot;&gt;url&lt;/p&gt;&lt;p style=&quot;margin: 0px ; margin-left: 8px&quot;&gt;referrer&lt;/p&gt;&lt;p style=&quot;margin: 0px ; margin-left: 8px&quot;&gt;ip&lt;/p&gt;&lt;p style=&quot;margin: 0px ; margin-left: 8px&quot;&gt;user_agent&lt;/p&gt;&lt;p style=&quot;margin: 0px ; margin-left: 8px&quot;&gt;client_language&lt;/p&gt;&lt;p style=&quot;margin: 0px ; margin-left: 8px&quot;&gt;processed_at&lt;/p&gt;&lt;p style=&quot;margin: 0px ; margin-left: 8px&quot;&gt;&lt;span&gt;lock_id&lt;/span&gt;&lt;br&gt;&lt;/p&gt;&lt;p style=&quot;margin: 0px ; margin-left: 8px&quot;&gt;search_query&lt;/p&gt;" style="verticalAlign=top;align=left;overflow=fill;fontSize=12;fontFamily=Helvetica;html=1;" parent="1" vertex="1">
          <mxGeometry x="390" y="540" width="140" height="215" as="geometry" />
        </mxCell>
        <mxCell id="qw6tBekGPEzTEi5tJ91N-16" value="&lt;p style=&quot;margin: 0px ; margin-top: 4px ; text-align: center ; text-decoration: underline&quot;&gt;&lt;b&gt;event_period&lt;/b&gt;&lt;/p&gt;&lt;hr&gt;&lt;p style=&quot;margin: 0px ; margin-left: 8px&quot;&gt;id&lt;/p&gt;&lt;p style=&quot;margin: 0px ; margin-left: 8px&quot;&gt;name&lt;/p&gt;" style="verticalAlign=top;align=left;overflow=fill;fontSize=12;fontFamily=Helvetica;html=1;" parent="1" vertex="1">
          <mxGeometry x="1770" y="624.5" width="130" height="70" as="geometry" />
        </mxCell>
        <mxCell id="WV2uRHjkIGPzRocQNmu5-1" value="&lt;p style=&quot;margin: 0px ; margin-top: 4px ; text-align: center ; text-decoration: underline&quot;&gt;&lt;b&gt;event_processed&lt;/b&gt;&lt;/p&gt;&lt;hr&gt;&lt;p style=&quot;margin: 0px ; margin-left: 8px&quot;&gt;raw_id&lt;/p&gt;&lt;p style=&quot;margin: 0px ; margin-left: 8px&quot;&gt;event_type_id&lt;/p&gt;&lt;p style=&quot;margin: 0px ; margin-left: 8px&quot;&gt;user_hash_id&lt;/p&gt;&lt;p style=&quot;margin: 0px ; margin-left: 8px&quot;&gt;referrer_id&lt;/p&gt;&lt;p style=&quot;margin: 0px ; margin-left: 8px&quot;&gt;language_iso_code&lt;/p&gt;&lt;p style=&quot;margin: 0px ; margin-left: 8px&quot;&gt;platform_id&lt;/p&gt;&lt;p style=&quot;margin: 0px ; margin-left: 8px&quot;&gt;browser_id&lt;/p&gt;&lt;p style=&quot;margin: 0px ; margin-left: 8px&quot;&gt;url_id&lt;/p&gt;&lt;p style=&quot;margin: 0px ; margin-left: 8px&quot;&gt;created_at&lt;/p&gt;" style="verticalAlign=top;align=left;overflow=fill;fontSize=12;fontFamily=Helvetica;html=1;" vertex="1" parent="1">
          <mxGeometry x="735" y="563.75" width="140" height="167.5" as="geometry" />
        </mxCell>
        <mxCell id="WV2uRHjkIGPzRocQNmu5-2" value="&lt;p style=&quot;margin: 0px ; margin-top: 4px ; text-align: center ; text-decoration: underline&quot;&gt;&lt;b&gt;event_search&lt;/b&gt;&lt;/p&gt;&lt;hr&gt;&lt;p style=&quot;margin: 0px ; margin-left: 8px&quot;&gt;raw_id&lt;/p&gt;&lt;p style=&quot;margin: 0px ; margin-left: 8px&quot;&gt;query&lt;/p&gt;" style="verticalAlign=top;align=left;overflow=fill;fontSize=12;fontFamily=Helvetica;html=1;" vertex="1" parent="1">
          <mxGeometry x="740" y="838" width="130" height="70" as="geometry" />
        </mxCell>
        <mxCell id="WV2uRHjkIGPzRocQNmu5-3" value="&lt;p style=&quot;margin: 0px ; margin-top: 4px ; text-align: center ; text-decoration: underline&quot;&gt;&lt;b&gt;event_type&lt;/b&gt;&lt;/p&gt;&lt;hr&gt;&lt;p style=&quot;margin: 0px ; margin-left: 8px&quot;&gt;id&lt;/p&gt;&lt;p style=&quot;margin: 0px ; margin-left: 8px&quot;&gt;name&lt;/p&gt;" style="verticalAlign=top;align=left;overflow=fill;fontSize=12;fontFamily=Helvetica;html=1;" vertex="1" parent="1">
          <mxGeometry x="740" y="307.5" width="130" height="70" as="geometry" />
        </mxCell>
        <mxCell id="WV2uRHjkIGPzRocQNmu5-6" value="&lt;p style=&quot;margin: 0px ; margin-top: 4px ; text-align: center ; text-decoration: underline&quot;&gt;&lt;b&gt;event_aggregated_user_hash&lt;/b&gt;&lt;/p&gt;&lt;hr&gt;&lt;p style=&quot;margin: 0px ; margin-left: 8px&quot;&gt;id&lt;/p&gt;&lt;p style=&quot;margin: 0px ; margin-left: 8px&quot;&gt;period_id&lt;/p&gt;&lt;p style=&quot;margin: 0px ; margin-left: 8px&quot;&gt;event_type_id&lt;/p&gt;&lt;p style=&quot;margin: 0px ; margin-left: 8px&quot;&gt;value_id&lt;/p&gt;&lt;p style=&quot;margin: 0px ; margin-left: 8px&quot;&gt;count&lt;/p&gt;&lt;p style=&quot;margin: 0px ; margin-left: 8px&quot;&gt;visited_at&lt;/p&gt;&lt;p style=&quot;margin: 0px ; margin-left: 8px&quot;&gt;updated_at&lt;/p&gt;" style="verticalAlign=top;align=left;overflow=fill;fontSize=12;fontFamily=Helvetica;html=1;" vertex="1" parent="1">
          <mxGeometry x="1370" y="767" width="190" height="140" as="geometry" />
        </mxCell>
        <mxCell id="WV2uRHjkIGPzRocQNmu5-7" value="&lt;p style=&quot;margin: 0px ; margin-top: 4px ; text-align: center ; text-decoration: underline&quot;&gt;&lt;b&gt;event_value_user_hash&lt;/b&gt;&lt;/p&gt;&lt;hr&gt;&lt;p style=&quot;margin: 0px ; margin-left: 8px&quot;&gt;id&lt;/p&gt;&lt;p style=&quot;margin: 0px ; margin-left: 8px&quot;&gt;value&lt;/p&gt;" style="verticalAlign=top;align=left;overflow=fill;fontSize=12;fontFamily=Helvetica;html=1;" vertex="1" parent="1">
          <mxGeometry x="1098" y="792" width="140" height="70" as="geometry" />
        </mxCell>
        <mxCell id="WV2uRHjkIGPzRocQNmu5-8" value="&lt;p style=&quot;margin: 0px ; margin-top: 4px ; text-align: center ; text-decoration: underline&quot;&gt;&lt;b&gt;event_value_referrer&lt;/b&gt;&lt;/p&gt;&lt;hr&gt;&lt;p style=&quot;margin: 0px ; margin-left: 8px&quot;&gt;id&lt;/p&gt;&lt;p style=&quot;margin: 0px ; margin-left: 8px&quot;&gt;value&lt;/p&gt;" style="verticalAlign=top;align=left;overflow=fill;fontSize=12;fontFamily=Helvetica;html=1;" vertex="1" parent="1">
          <mxGeometry x="1098" y="445" width="140" height="70" as="geometry" />
        </mxCell>
        <mxCell id="WV2uRHjkIGPzRocQNmu5-11" value="&lt;p style=&quot;margin: 0px ; margin-top: 4px ; text-align: center ; text-decoration: underline&quot;&gt;&lt;b&gt;event_value_user_agent_platform&lt;/b&gt;&lt;/p&gt;&lt;hr&gt;&lt;p style=&quot;margin: 0px ; margin-left: 8px&quot;&gt;id&lt;/p&gt;&lt;p style=&quot;margin: 0px ; margin-left: 8px&quot;&gt;value&lt;/p&gt;" style="verticalAlign=top;align=left;overflow=fill;fontSize=12;fontFamily=Helvetica;html=1;" vertex="1" parent="1">
          <mxGeometry x="1018" y="975" width="220" height="70" as="geometry" />
        </mxCell>
        <mxCell id="WV2uRHjkIGPzRocQNmu5-12" value="&lt;p style=&quot;margin: 0px ; margin-top: 4px ; text-align: center ; text-decoration: underline&quot;&gt;&lt;b&gt;event_value_user_agent_browser&lt;/b&gt;&lt;/p&gt;&lt;hr&gt;&lt;p style=&quot;margin: 0px ; margin-left: 8px&quot;&gt;id&lt;/p&gt;&lt;p style=&quot;margin: 0px ; margin-left: 8px&quot;&gt;value&lt;/p&gt;" style="verticalAlign=top;align=left;overflow=fill;fontSize=12;fontFamily=Helvetica;html=1;" vertex="1" parent="1">
          <mxGeometry x="1018" y="1155" width="220" height="70" as="geometry" />
        </mxCell>
        <mxCell id="WV2uRHjkIGPzRocQNmu5-13" value="&lt;p style=&quot;margin: 0px ; margin-top: 4px ; text-align: center ; text-decoration: underline&quot;&gt;&lt;b&gt;event_value_url&lt;/b&gt;&lt;/p&gt;&lt;hr&gt;&lt;p style=&quot;margin: 0px ; margin-left: 8px&quot;&gt;id&lt;/p&gt;&lt;p style=&quot;margin: 0px ; margin-left: 8px&quot;&gt;value&lt;/p&gt;" style="verticalAlign=top;align=left;overflow=fill;fontSize=12;fontFamily=Helvetica;html=1;" vertex="1" parent="1">
          <mxGeometry x="1098" y="624.5" width="140" height="70" as="geometry" />
        </mxCell>
        <mxCell id="WV2uRHjkIGPzRocQNmu5-14" value="&lt;p style=&quot;margin: 0px ; margin-top: 4px ; text-align: center ; text-decoration: underline&quot;&gt;&lt;b&gt;event_aggregated_url&lt;/b&gt;&lt;/p&gt;&lt;hr&gt;&lt;p style=&quot;margin: 0px ; margin-left: 8px&quot;&gt;id&lt;/p&gt;&lt;p style=&quot;margin: 0px ; margin-left: 8px&quot;&gt;period_id&lt;/p&gt;&lt;p style=&quot;margin: 0px ; margin-left: 8px&quot;&gt;event_type_id&lt;/p&gt;&lt;p style=&quot;margin: 0px ; margin-left: 8px&quot;&gt;value_id&lt;/p&gt;&lt;p style=&quot;margin: 0px ; margin-left: 8px&quot;&gt;count&lt;/p&gt;&lt;p style=&quot;margin: 0px ; margin-left: 8px&quot;&gt;visited_at&lt;/p&gt;&lt;p style=&quot;margin: 0px ; margin-left: 8px&quot;&gt;updated_at&lt;/p&gt;" style="verticalAlign=top;align=left;overflow=fill;fontSize=12;fontFamily=Helvetica;html=1;" vertex="1" parent="1">
          <mxGeometry x="1370" y="584.5" width="140" height="150" as="geometry" />
        </mxCell>
        <mxCell id="WV2uRHjkIGPzRocQNmu5-15" value="&lt;p style=&quot;margin: 0px ; margin-top: 4px ; text-align: center ; text-decoration: underline&quot;&gt;&lt;b&gt;event_aggregated_referrer&lt;/b&gt;&lt;/p&gt;&lt;hr&gt;&lt;p style=&quot;margin: 0px ; margin-left: 8px&quot;&gt;id&lt;/p&gt;&lt;p style=&quot;margin: 0px ; margin-left: 8px&quot;&gt;period_id&lt;/p&gt;&lt;p style=&quot;margin: 0px ; margin-left: 8px&quot;&gt;event_type_id&lt;/p&gt;&lt;p style=&quot;margin: 0px ; margin-left: 8px&quot;&gt;value_id&lt;/p&gt;&lt;p style=&quot;margin: 0px ; margin-left: 8px&quot;&gt;count&lt;/p&gt;&lt;p style=&quot;margin: 0px ; margin-left: 8px&quot;&gt;visited_at&lt;/p&gt;&lt;p style=&quot;margin: 0px ; margin-left: 8px&quot;&gt;updated_at&lt;/p&gt;" style="verticalAlign=top;align=left;overflow=fill;fontSize=12;fontFamily=Helvetica;html=1;" vertex="1" parent="1">
          <mxGeometry x="1370" y="410" width="170" height="140" as="geometry" />
        </mxCell>
        <mxCell id="WV2uRHjkIGPzRocQNmu5-16" value="&lt;p style=&quot;margin: 0px ; margin-top: 4px ; text-align: center ; text-decoration: underline&quot;&gt;&lt;b&gt;event_aggregated_language_iso_code&lt;/b&gt;&lt;/p&gt;&lt;hr&gt;&lt;p style=&quot;margin: 0px ; margin-left: 8px&quot;&gt;language_iso_code&lt;/p&gt;&lt;p style=&quot;margin: 0px ; margin-left: 8px&quot;&gt;period_id&lt;/p&gt;&lt;p style=&quot;margin: 0px ; margin-left: 8px&quot;&gt;event_type_id&lt;/p&gt;&lt;p style=&quot;margin: 0px ; margin-left: 8px&quot;&gt;count&lt;/p&gt;&lt;p style=&quot;margin: 0px ; margin-left: 8px&quot;&gt;visited_at&lt;/p&gt;&lt;p style=&quot;margin: 0px ; margin-left: 8px&quot;&gt;updated_at&lt;/p&gt;" style="verticalAlign=top;align=left;overflow=fill;fontSize=12;fontFamily=Helvetica;html=1;" vertex="1" parent="1">
          <mxGeometry x="1370" y="250" width="240" height="127.5" as="geometry" />
        </mxCell>
        <mxCell id="WV2uRHjkIGPzRocQNmu5-17" value="&lt;p style=&quot;margin: 0px ; margin-top: 4px ; text-align: center ; text-decoration: underline&quot;&gt;&lt;b&gt;event_aggregated_user_agent_platform&lt;/b&gt;&lt;/p&gt;&lt;hr&gt;&lt;p style=&quot;margin: 0px ; margin-left: 8px&quot;&gt;id&lt;/p&gt;&lt;p style=&quot;margin: 0px ; margin-left: 8px&quot;&gt;period_id&lt;/p&gt;&lt;p style=&quot;margin: 0px ; margin-left: 8px&quot;&gt;event_type_id&lt;/p&gt;&lt;p style=&quot;margin: 0px ; margin-left: 8px&quot;&gt;value_id&lt;/p&gt;&lt;p style=&quot;margin: 0px ; margin-left: 8px&quot;&gt;count&lt;/p&gt;&lt;p style=&quot;margin: 0px ; margin-left: 8px&quot;&gt;visited_at&lt;/p&gt;&lt;p style=&quot;margin: 0px ; margin-left: 8px&quot;&gt;updated_at&lt;/p&gt;" style="verticalAlign=top;align=left;overflow=fill;fontSize=12;fontFamily=Helvetica;html=1;" vertex="1" parent="1">
          <mxGeometry x="1370" y="940" width="260" height="140" as="geometry" />
        </mxCell>
        <mxCell id="WV2uRHjkIGPzRocQNmu5-18" value="&lt;p style=&quot;margin: 0px ; margin-top: 4px ; text-align: center ; text-decoration: underline&quot;&gt;&lt;b&gt;event_aggregated_user_agent_browser&lt;/b&gt;&lt;/p&gt;&lt;hr&gt;&lt;p style=&quot;margin: 0px ; margin-left: 8px&quot;&gt;id&lt;/p&gt;&lt;p style=&quot;margin: 0px ; margin-left: 8px&quot;&gt;period_id&lt;/p&gt;&lt;p style=&quot;margin: 0px ; margin-left: 8px&quot;&gt;event_type_id&lt;/p&gt;&lt;p style=&quot;margin: 0px ; margin-left: 8px&quot;&gt;value_id&lt;/p&gt;&lt;p style=&quot;margin: 0px ; margin-left: 8px&quot;&gt;count&lt;/p&gt;&lt;p style=&quot;margin: 0px ; margin-left: 8px&quot;&gt;visited_at&lt;/p&gt;&lt;p style=&quot;margin: 0px ; margin-left: 8px&quot;&gt;updated_at&lt;/p&gt;" style="verticalAlign=top;align=left;overflow=fill;fontSize=12;fontFamily=Helvetica;html=1;" vertex="1" parent="1">
          <mxGeometry x="1370" y="1120" width="250" height="140" as="geometry" />
        </mxCell>
        <mxCell id="WV2uRHjkIGPzRocQNmu5-19" value="" style="endArrow=open;html=1;endSize=12;startArrow=diamondThin;startSize=14;startFill=0;edgeStyle=orthogonalEdgeStyle;" edge="1" parent="1" source="qw6tBekGPEzTEi5tJ91N-15" target="WV2uRHjkIGPzRocQNmu5-1">
          <mxGeometry relative="1" as="geometry">
            <mxPoint x="755" y="985.75" as="sourcePoint" />
            <mxPoint x="905" y="985.75" as="targetPoint" />
            <Array as="points" />
          </mxGeometry>
        </mxCell>
        <mxCell id="WV2uRHjkIGPzRocQNmu5-20" value="1" style="edgeLabel;resizable=0;html=1;align=left;verticalAlign=top;" connectable="0" vertex="1" parent="WV2uRHjkIGPzRocQNmu5-19">
          <mxGeometry x="-1" relative="1" as="geometry">
            <mxPoint x="15" y="-25" as="offset" />
          </mxGeometry>
        </mxCell>
        <mxCell id="WV2uRHjkIGPzRocQNmu5-21" value="&lt;div&gt;0..n&lt;/div&gt;" style="edgeLabel;resizable=0;html=1;align=right;verticalAlign=top;" connectable="0" vertex="1" parent="WV2uRHjkIGPzRocQNmu5-19">
          <mxGeometry x="1" relative="1" as="geometry">
            <mxPoint x="-20" y="-26" as="offset" />
          </mxGeometry>
        </mxCell>
        <mxCell id="WV2uRHjkIGPzRocQNmu5-22" value="" style="endArrow=open;html=1;endSize=12;startArrow=diamondThin;startSize=14;startFill=0;edgeStyle=orthogonalEdgeStyle;" edge="1" parent="1" source="WV2uRHjkIGPzRocQNmu5-1" target="WV2uRHjkIGPzRocQNmu5-2">
          <mxGeometry relative="1" as="geometry">
            <mxPoint x="600" y="658" as="sourcePoint" />
            <mxPoint x="745" y="658" as="targetPoint" />
            <Array as="points" />
          </mxGeometry>
        </mxCell>
        <mxCell id="WV2uRHjkIGPzRocQNmu5-23" value="1" style="edgeLabel;resizable=0;html=1;align=left;verticalAlign=top;" connectable="0" vertex="1" parent="WV2uRHjkIGPzRocQNmu5-22">
          <mxGeometry x="-1" relative="1" as="geometry">
            <mxPoint x="-19" y="7" as="offset" />
          </mxGeometry>
        </mxCell>
        <mxCell id="WV2uRHjkIGPzRocQNmu5-24" value="&lt;div&gt;0..1&lt;/div&gt;" style="edgeLabel;resizable=0;html=1;align=right;verticalAlign=top;" connectable="0" vertex="1" parent="WV2uRHjkIGPzRocQNmu5-22">
          <mxGeometry x="1" relative="1" as="geometry">
            <mxPoint x="-9" y="-34" as="offset" />
          </mxGeometry>
        </mxCell>
        <mxCell id="WV2uRHjkIGPzRocQNmu5-26" value="" style="endArrow=open;html=1;endSize=12;startArrow=diamondThin;startSize=14;startFill=0;edgeStyle=orthogonalEdgeStyle;" edge="1" parent="1" source="WV2uRHjkIGPzRocQNmu5-3" target="WV2uRHjkIGPzRocQNmu5-1">
          <mxGeometry relative="1" as="geometry">
            <mxPoint x="630" y="1070" as="sourcePoint" />
            <mxPoint x="780" y="1070" as="targetPoint" />
            <Array as="points">
              <mxPoint x="800" y="500" />
              <mxPoint x="800" y="500" />
            </Array>
          </mxGeometry>
        </mxCell>
        <mxCell id="WV2uRHjkIGPzRocQNmu5-27" value="1" style="edgeLabel;resizable=0;html=1;align=left;verticalAlign=top;" connectable="0" vertex="1" parent="WV2uRHjkIGPzRocQNmu5-26">
          <mxGeometry x="-1" relative="1" as="geometry">
            <mxPoint x="-20" y="3" as="offset" />
          </mxGeometry>
        </mxCell>
        <mxCell id="WV2uRHjkIGPzRocQNmu5-28" value="&lt;div&gt;0..n&lt;/div&gt;" style="edgeLabel;resizable=0;html=1;align=right;verticalAlign=top;" connectable="0" vertex="1" parent="WV2uRHjkIGPzRocQNmu5-26">
          <mxGeometry x="1" relative="1" as="geometry">
            <mxPoint x="-12" y="-34" as="offset" />
          </mxGeometry>
        </mxCell>
        <mxCell id="WV2uRHjkIGPzRocQNmu5-29" value="" style="endArrow=open;html=1;endSize=12;startArrow=diamondThin;startSize=14;startFill=0;edgeStyle=orthogonalEdgeStyle;" edge="1" parent="1" source="WV2uRHjkIGPzRocQNmu5-13" target="WV2uRHjkIGPzRocQNmu5-14">
          <mxGeometry relative="1" as="geometry">
            <mxPoint x="1650" y="1140" as="sourcePoint" />
            <mxPoint x="1440" y="1140" as="targetPoint" />
            <Array as="points" />
          </mxGeometry>
        </mxCell>
        <mxCell id="WV2uRHjkIGPzRocQNmu5-30" value="1" style="edgeLabel;resizable=0;html=1;align=left;verticalAlign=top;" connectable="0" vertex="1" parent="WV2uRHjkIGPzRocQNmu5-29">
          <mxGeometry x="-1" relative="1" as="geometry">
            <mxPoint x="22" y="-29" as="offset" />
          </mxGeometry>
        </mxCell>
        <mxCell id="WV2uRHjkIGPzRocQNmu5-31" value="&lt;div&gt;0..n&lt;/div&gt;" style="edgeLabel;resizable=0;html=1;align=right;verticalAlign=top;" connectable="0" vertex="1" parent="WV2uRHjkIGPzRocQNmu5-29">
          <mxGeometry x="1" relative="1" as="geometry">
            <mxPoint x="-20" y="-32" as="offset" />
          </mxGeometry>
        </mxCell>
        <mxCell id="WV2uRHjkIGPzRocQNmu5-32" value="" style="endArrow=open;html=1;endSize=12;startArrow=diamondThin;startSize=14;startFill=0;edgeStyle=orthogonalEdgeStyle;" edge="1" parent="1" source="WV2uRHjkIGPzRocQNmu5-8" target="WV2uRHjkIGPzRocQNmu5-15">
          <mxGeometry relative="1" as="geometry">
            <mxPoint x="1700" y="670" as="sourcePoint" />
            <mxPoint x="1570" y="670" as="targetPoint" />
            <Array as="points" />
          </mxGeometry>
        </mxCell>
        <mxCell id="WV2uRHjkIGPzRocQNmu5-33" value="1" style="edgeLabel;resizable=0;html=1;align=left;verticalAlign=top;" connectable="0" vertex="1" parent="WV2uRHjkIGPzRocQNmu5-32">
          <mxGeometry x="-1" relative="1" as="geometry">
            <mxPoint x="20" y="-29" as="offset" />
          </mxGeometry>
        </mxCell>
        <mxCell id="WV2uRHjkIGPzRocQNmu5-34" value="&lt;div&gt;0..n&lt;/div&gt;" style="edgeLabel;resizable=0;html=1;align=right;verticalAlign=top;" connectable="0" vertex="1" parent="WV2uRHjkIGPzRocQNmu5-32">
          <mxGeometry x="1" relative="1" as="geometry">
            <mxPoint x="-18" y="-32" as="offset" />
          </mxGeometry>
        </mxCell>
        <mxCell id="WV2uRHjkIGPzRocQNmu5-35" value="" style="endArrow=open;html=1;endSize=12;startArrow=diamondThin;startSize=14;startFill=0;edgeStyle=orthogonalEdgeStyle;" edge="1" parent="1" source="WV2uRHjkIGPzRocQNmu5-7" target="WV2uRHjkIGPzRocQNmu5-6">
          <mxGeometry relative="1" as="geometry">
            <mxPoint x="1710" y="680" as="sourcePoint" />
            <mxPoint x="1580" y="680" as="targetPoint" />
            <Array as="points">
              <mxPoint x="1270" y="837" />
              <mxPoint x="1270" y="837" />
            </Array>
          </mxGeometry>
        </mxCell>
        <mxCell id="WV2uRHjkIGPzRocQNmu5-36" value="1" style="edgeLabel;resizable=0;html=1;align=left;verticalAlign=top;" connectable="0" vertex="1" parent="WV2uRHjkIGPzRocQNmu5-35">
          <mxGeometry x="-1" relative="1" as="geometry">
            <mxPoint x="22" y="-29" as="offset" />
          </mxGeometry>
        </mxCell>
        <mxCell id="WV2uRHjkIGPzRocQNmu5-37" value="&lt;div&gt;0..n&lt;/div&gt;" style="edgeLabel;resizable=0;html=1;align=right;verticalAlign=top;" connectable="0" vertex="1" parent="WV2uRHjkIGPzRocQNmu5-35">
          <mxGeometry x="1" relative="1" as="geometry">
            <mxPoint x="-10" y="-32" as="offset" />
          </mxGeometry>
        </mxCell>
        <mxCell id="WV2uRHjkIGPzRocQNmu5-38" value="" style="endArrow=open;html=1;endSize=12;startArrow=diamondThin;startSize=14;startFill=0;edgeStyle=orthogonalEdgeStyle;" edge="1" parent="1" source="WV2uRHjkIGPzRocQNmu5-11" target="WV2uRHjkIGPzRocQNmu5-17">
          <mxGeometry relative="1" as="geometry">
            <mxPoint x="1720" y="690" as="sourcePoint" />
            <mxPoint x="1590" y="690" as="targetPoint" />
            <Array as="points" />
          </mxGeometry>
        </mxCell>
        <mxCell id="WV2uRHjkIGPzRocQNmu5-39" value="1" style="edgeLabel;resizable=0;html=1;align=left;verticalAlign=top;" connectable="0" vertex="1" parent="WV2uRHjkIGPzRocQNmu5-38">
          <mxGeometry x="-1" relative="1" as="geometry">
            <mxPoint x="12" y="-29" as="offset" />
          </mxGeometry>
        </mxCell>
        <mxCell id="WV2uRHjkIGPzRocQNmu5-40" value="&lt;div&gt;0..n&lt;/div&gt;" style="edgeLabel;resizable=0;html=1;align=right;verticalAlign=top;" connectable="0" vertex="1" parent="WV2uRHjkIGPzRocQNmu5-38">
          <mxGeometry x="1" relative="1" as="geometry">
            <mxPoint x="-10" y="-32" as="offset" />
          </mxGeometry>
        </mxCell>
        <mxCell id="WV2uRHjkIGPzRocQNmu5-41" value="" style="endArrow=open;html=1;endSize=12;startArrow=diamondThin;startSize=14;startFill=0;edgeStyle=orthogonalEdgeStyle;" edge="1" parent="1" source="WV2uRHjkIGPzRocQNmu5-12" target="WV2uRHjkIGPzRocQNmu5-18">
          <mxGeometry relative="1" as="geometry">
            <mxPoint x="1730" y="700" as="sourcePoint" />
            <mxPoint x="1600" y="700" as="targetPoint" />
            <Array as="points" />
          </mxGeometry>
        </mxCell>
        <mxCell id="WV2uRHjkIGPzRocQNmu5-42" value="1" style="edgeLabel;resizable=0;html=1;align=left;verticalAlign=top;" connectable="0" vertex="1" parent="WV2uRHjkIGPzRocQNmu5-41">
          <mxGeometry x="-1" relative="1" as="geometry">
            <mxPoint x="10" y="-29" as="offset" />
          </mxGeometry>
        </mxCell>
        <mxCell id="WV2uRHjkIGPzRocQNmu5-43" value="&lt;div&gt;0..n&lt;/div&gt;" style="edgeLabel;resizable=0;html=1;align=right;verticalAlign=top;" connectable="0" vertex="1" parent="WV2uRHjkIGPzRocQNmu5-41">
          <mxGeometry x="1" relative="1" as="geometry">
            <mxPoint x="-10" y="-32" as="offset" />
          </mxGeometry>
        </mxCell>
        <mxCell id="WV2uRHjkIGPzRocQNmu5-44" value="" style="endArrow=open;html=1;endSize=12;startArrow=diamondThin;startSize=14;startFill=0;edgeStyle=orthogonalEdgeStyle;" edge="1" parent="1" source="qw6tBekGPEzTEi5tJ91N-16" target="WV2uRHjkIGPzRocQNmu5-14">
          <mxGeometry relative="1" as="geometry">
            <mxPoint x="540" y="658" as="sourcePoint" />
            <mxPoint x="745" y="658" as="targetPoint" />
            <Array as="points" />
          </mxGeometry>
        </mxCell>
        <mxCell id="WV2uRHjkIGPzRocQNmu5-45" value="1" style="edgeLabel;resizable=0;html=1;align=left;verticalAlign=top;" connectable="0" vertex="1" parent="WV2uRHjkIGPzRocQNmu5-44">
          <mxGeometry x="-1" relative="1" as="geometry">
            <mxPoint x="-20" y="-25" as="offset" />
          </mxGeometry>
        </mxCell>
        <mxCell id="WV2uRHjkIGPzRocQNmu5-46" value="&lt;div&gt;0..n&lt;/div&gt;" style="edgeLabel;resizable=0;html=1;align=right;verticalAlign=top;" connectable="0" vertex="1" parent="WV2uRHjkIGPzRocQNmu5-44">
          <mxGeometry x="1" relative="1" as="geometry">
            <mxPoint x="40" y="-29" as="offset" />
          </mxGeometry>
        </mxCell>
        <mxCell id="WV2uRHjkIGPzRocQNmu5-47" value="" style="endArrow=open;html=1;endSize=12;startArrow=diamondThin;startSize=14;startFill=0;edgeStyle=orthogonalEdgeStyle;" edge="1" parent="1" source="qw6tBekGPEzTEi5tJ91N-16" target="WV2uRHjkIGPzRocQNmu5-15">
          <mxGeometry relative="1" as="geometry">
            <mxPoint x="1170" y="670" as="sourcePoint" />
            <mxPoint x="1430" y="670" as="targetPoint" />
            <Array as="points">
              <mxPoint x="1790" y="480" />
            </Array>
          </mxGeometry>
        </mxCell>
        <mxCell id="WV2uRHjkIGPzRocQNmu5-48" value="1" style="edgeLabel;resizable=0;html=1;align=left;verticalAlign=top;" connectable="0" vertex="1" parent="WV2uRHjkIGPzRocQNmu5-47">
          <mxGeometry x="-1" relative="1" as="geometry">
            <mxPoint x="15" y="-34" as="offset" />
          </mxGeometry>
        </mxCell>
        <mxCell id="WV2uRHjkIGPzRocQNmu5-49" value="&lt;div&gt;0..n&lt;/div&gt;" style="edgeLabel;resizable=0;html=1;align=right;verticalAlign=top;" connectable="0" vertex="1" parent="WV2uRHjkIGPzRocQNmu5-47">
          <mxGeometry x="1" relative="1" as="geometry">
            <mxPoint x="41" y="-30" as="offset" />
          </mxGeometry>
        </mxCell>
        <mxCell id="WV2uRHjkIGPzRocQNmu5-51" value="" style="endArrow=open;html=1;endSize=12;startArrow=diamondThin;startSize=14;startFill=0;edgeStyle=orthogonalEdgeStyle;" edge="1" parent="1" source="qw6tBekGPEzTEi5tJ91N-16" target="WV2uRHjkIGPzRocQNmu5-16">
          <mxGeometry relative="1" as="geometry">
            <mxPoint x="1860" y="624.5" as="sourcePoint" />
            <mxPoint x="1570" y="310" as="targetPoint" />
            <Array as="points">
              <mxPoint x="1860" y="310" />
            </Array>
          </mxGeometry>
        </mxCell>
        <mxCell id="WV2uRHjkIGPzRocQNmu5-52" value="1" style="edgeLabel;resizable=0;html=1;align=left;verticalAlign=top;" connectable="0" vertex="1" parent="WV2uRHjkIGPzRocQNmu5-51">
          <mxGeometry x="-1" relative="1" as="geometry">
            <mxPoint x="-19" y="-35" as="offset" />
          </mxGeometry>
        </mxCell>
        <mxCell id="WV2uRHjkIGPzRocQNmu5-53" value="&lt;div&gt;0..n&lt;/div&gt;" style="edgeLabel;resizable=0;html=1;align=right;verticalAlign=top;" connectable="0" vertex="1" parent="WV2uRHjkIGPzRocQNmu5-51">
          <mxGeometry x="1" relative="1" as="geometry">
            <mxPoint x="41" y="-30" as="offset" />
          </mxGeometry>
        </mxCell>
        <mxCell id="WV2uRHjkIGPzRocQNmu5-55" value="" style="endArrow=open;html=1;endSize=12;startArrow=diamondThin;startSize=14;startFill=0;edgeStyle=orthogonalEdgeStyle;" edge="1" parent="1" source="qw6tBekGPEzTEi5tJ91N-16" target="WV2uRHjkIGPzRocQNmu5-6">
          <mxGeometry relative="1" as="geometry">
            <mxPoint x="1170" y="670" as="sourcePoint" />
            <mxPoint x="1430" y="670" as="targetPoint" />
            <Array as="points">
              <mxPoint x="1800" y="840" />
            </Array>
          </mxGeometry>
        </mxCell>
        <mxCell id="WV2uRHjkIGPzRocQNmu5-56" value="1" style="edgeLabel;resizable=0;html=1;align=left;verticalAlign=top;" connectable="0" vertex="1" parent="WV2uRHjkIGPzRocQNmu5-55">
          <mxGeometry x="-1" relative="1" as="geometry">
            <mxPoint x="10" y="4" as="offset" />
          </mxGeometry>
        </mxCell>
        <mxCell id="WV2uRHjkIGPzRocQNmu5-57" value="&lt;div&gt;0..n&lt;/div&gt;" style="edgeLabel;resizable=0;html=1;align=right;verticalAlign=top;" connectable="0" vertex="1" parent="WV2uRHjkIGPzRocQNmu5-55">
          <mxGeometry x="1" relative="1" as="geometry">
            <mxPoint x="41" y="-30" as="offset" />
          </mxGeometry>
        </mxCell>
        <mxCell id="WV2uRHjkIGPzRocQNmu5-58" value="" style="endArrow=open;html=1;endSize=12;startArrow=diamondThin;startSize=14;startFill=0;edgeStyle=orthogonalEdgeStyle;" edge="1" parent="1" source="qw6tBekGPEzTEi5tJ91N-16" target="WV2uRHjkIGPzRocQNmu5-17">
          <mxGeometry relative="1" as="geometry">
            <mxPoint x="1150" y="705" as="sourcePoint" />
            <mxPoint x="1380" y="850" as="targetPoint" />
            <Array as="points">
              <mxPoint x="1835" y="1020" />
            </Array>
          </mxGeometry>
        </mxCell>
        <mxCell id="WV2uRHjkIGPzRocQNmu5-59" value="1" style="edgeLabel;resizable=0;html=1;align=left;verticalAlign=top;" connectable="0" vertex="1" parent="WV2uRHjkIGPzRocQNmu5-58">
          <mxGeometry x="-1" relative="1" as="geometry">
            <mxPoint x="10" y="4" as="offset" />
          </mxGeometry>
        </mxCell>
        <mxCell id="WV2uRHjkIGPzRocQNmu5-60" value="&lt;div&gt;0..n&lt;/div&gt;" style="edgeLabel;resizable=0;html=1;align=right;verticalAlign=top;" connectable="0" vertex="1" parent="WV2uRHjkIGPzRocQNmu5-58">
          <mxGeometry x="1" relative="1" as="geometry">
            <mxPoint x="41" y="-30" as="offset" />
          </mxGeometry>
        </mxCell>
        <mxCell id="WV2uRHjkIGPzRocQNmu5-61" value="" style="endArrow=open;html=1;endSize=12;startArrow=diamondThin;startSize=14;startFill=0;edgeStyle=orthogonalEdgeStyle;" edge="1" parent="1" source="qw6tBekGPEzTEi5tJ91N-16" target="WV2uRHjkIGPzRocQNmu5-18">
          <mxGeometry relative="1" as="geometry">
            <mxPoint x="1160" y="715" as="sourcePoint" />
            <mxPoint x="1390" y="860" as="targetPoint" />
            <Array as="points">
              <mxPoint x="1880" y="1200" />
            </Array>
          </mxGeometry>
        </mxCell>
        <mxCell id="WV2uRHjkIGPzRocQNmu5-62" value="1" style="edgeLabel;resizable=0;html=1;align=left;verticalAlign=top;" connectable="0" vertex="1" parent="WV2uRHjkIGPzRocQNmu5-61">
          <mxGeometry x="-1" relative="1" as="geometry">
            <mxPoint x="10" y="4" as="offset" />
          </mxGeometry>
        </mxCell>
        <mxCell id="WV2uRHjkIGPzRocQNmu5-63" value="&lt;div&gt;0..n&lt;/div&gt;" style="edgeLabel;resizable=0;html=1;align=right;verticalAlign=top;" connectable="0" vertex="1" parent="WV2uRHjkIGPzRocQNmu5-61">
          <mxGeometry x="1" relative="1" as="geometry">
            <mxPoint x="41" y="-30" as="offset" />
          </mxGeometry>
        </mxCell>
        <mxCell id="WV2uRHjkIGPzRocQNmu5-64" value="" style="endArrow=open;html=1;endSize=12;startArrow=diamondThin;startSize=14;startFill=0;edgeStyle=orthogonalEdgeStyle;" edge="1" parent="1" source="WV2uRHjkIGPzRocQNmu5-13" target="WV2uRHjkIGPzRocQNmu5-1">
          <mxGeometry relative="1" as="geometry">
            <mxPoint x="1098" y="648.5" as="sourcePoint" />
            <mxPoint x="875" y="648.5" as="targetPoint" />
            <Array as="points">
              <mxPoint x="1040" y="650" />
              <mxPoint x="1040" y="630" />
            </Array>
          </mxGeometry>
        </mxCell>
        <mxCell id="WV2uRHjkIGPzRocQNmu5-65" value="1" style="edgeLabel;resizable=0;html=1;align=left;verticalAlign=top;" connectable="0" vertex="1" parent="WV2uRHjkIGPzRocQNmu5-64">
          <mxGeometry x="-1" relative="1" as="geometry">
            <mxPoint x="-27" y="-25" as="offset" />
          </mxGeometry>
        </mxCell>
        <mxCell id="WV2uRHjkIGPzRocQNmu5-66" value="&lt;div&gt;0..n&lt;/div&gt;" style="edgeLabel;resizable=0;html=1;align=right;verticalAlign=top;" connectable="0" vertex="1" parent="WV2uRHjkIGPzRocQNmu5-64">
          <mxGeometry x="1" relative="1" as="geometry">
            <mxPoint x="40" y="-29" as="offset" />
          </mxGeometry>
        </mxCell>
        <mxCell id="WV2uRHjkIGPzRocQNmu5-67" value="" style="endArrow=open;html=1;endSize=12;startArrow=diamondThin;startSize=14;startFill=0;edgeStyle=orthogonalEdgeStyle;" edge="1" parent="1" source="WV2uRHjkIGPzRocQNmu5-8" target="WV2uRHjkIGPzRocQNmu5-1">
          <mxGeometry relative="1" as="geometry">
            <mxPoint x="1108" y="670" as="sourcePoint" />
            <mxPoint x="885" y="670" as="targetPoint" />
            <Array as="points">
              <mxPoint x="1010" y="480" />
              <mxPoint x="1010" y="600" />
            </Array>
          </mxGeometry>
        </mxCell>
        <mxCell id="WV2uRHjkIGPzRocQNmu5-68" value="1" style="edgeLabel;resizable=0;html=1;align=left;verticalAlign=top;" connectable="0" vertex="1" parent="WV2uRHjkIGPzRocQNmu5-67">
          <mxGeometry x="-1" relative="1" as="geometry">
            <mxPoint x="-27" y="-25" as="offset" />
          </mxGeometry>
        </mxCell>
        <mxCell id="WV2uRHjkIGPzRocQNmu5-69" value="&lt;div&gt;0..n&lt;/div&gt;" style="edgeLabel;resizable=0;html=1;align=right;verticalAlign=top;" connectable="0" vertex="1" parent="WV2uRHjkIGPzRocQNmu5-67">
          <mxGeometry x="1" relative="1" as="geometry">
            <mxPoint x="40" y="-29" as="offset" />
          </mxGeometry>
        </mxCell>
        <mxCell id="WV2uRHjkIGPzRocQNmu5-70" value="" style="endArrow=open;html=1;endSize=12;startArrow=diamondThin;startSize=14;startFill=0;edgeStyle=orthogonalEdgeStyle;" edge="1" parent="1" source="WV2uRHjkIGPzRocQNmu5-7" target="WV2uRHjkIGPzRocQNmu5-1">
          <mxGeometry relative="1" as="geometry">
            <mxPoint x="1108" y="670" as="sourcePoint" />
            <mxPoint x="885" y="670" as="targetPoint" />
            <Array as="points">
              <mxPoint x="1020" y="827" />
              <mxPoint x="1020" y="660" />
            </Array>
          </mxGeometry>
        </mxCell>
        <mxCell id="WV2uRHjkIGPzRocQNmu5-71" value="1" style="edgeLabel;resizable=0;html=1;align=left;verticalAlign=top;" connectable="0" vertex="1" parent="WV2uRHjkIGPzRocQNmu5-70">
          <mxGeometry x="-1" relative="1" as="geometry">
            <mxPoint x="-27" y="-25" as="offset" />
          </mxGeometry>
        </mxCell>
        <mxCell id="WV2uRHjkIGPzRocQNmu5-72" value="&lt;div&gt;0..n&lt;/div&gt;" style="edgeLabel;resizable=0;html=1;align=right;verticalAlign=top;" connectable="0" vertex="1" parent="WV2uRHjkIGPzRocQNmu5-70">
          <mxGeometry x="1" relative="1" as="geometry">
            <mxPoint x="40" y="-29" as="offset" />
          </mxGeometry>
        </mxCell>
        <mxCell id="WV2uRHjkIGPzRocQNmu5-73" value="" style="endArrow=open;html=1;endSize=12;startArrow=diamondThin;startSize=14;startFill=0;edgeStyle=orthogonalEdgeStyle;" edge="1" parent="1" source="WV2uRHjkIGPzRocQNmu5-11" target="WV2uRHjkIGPzRocQNmu5-1">
          <mxGeometry relative="1" as="geometry">
            <mxPoint x="1108" y="837" as="sourcePoint" />
            <mxPoint x="885" y="670" as="targetPoint" />
            <Array as="points">
              <mxPoint x="970" y="1010" />
              <mxPoint x="970" y="690" />
            </Array>
          </mxGeometry>
        </mxCell>
        <mxCell id="WV2uRHjkIGPzRocQNmu5-74" value="1" style="edgeLabel;resizable=0;html=1;align=left;verticalAlign=top;" connectable="0" vertex="1" parent="WV2uRHjkIGPzRocQNmu5-73">
          <mxGeometry x="-1" relative="1" as="geometry">
            <mxPoint x="-27" y="-25" as="offset" />
          </mxGeometry>
        </mxCell>
        <mxCell id="WV2uRHjkIGPzRocQNmu5-75" value="&lt;div&gt;0..n&lt;/div&gt;" style="edgeLabel;resizable=0;html=1;align=right;verticalAlign=top;" connectable="0" vertex="1" parent="WV2uRHjkIGPzRocQNmu5-73">
          <mxGeometry x="1" relative="1" as="geometry">
            <mxPoint x="40" y="-29" as="offset" />
          </mxGeometry>
        </mxCell>
        <mxCell id="WV2uRHjkIGPzRocQNmu5-76" value="" style="endArrow=open;html=1;endSize=12;startArrow=diamondThin;startSize=14;startFill=0;edgeStyle=orthogonalEdgeStyle;" edge="1" parent="1" source="WV2uRHjkIGPzRocQNmu5-12" target="WV2uRHjkIGPzRocQNmu5-1">
          <mxGeometry relative="1" as="geometry">
            <mxPoint x="1028" y="1020" as="sourcePoint" />
            <mxPoint x="885" y="700" as="targetPoint" />
            <Array as="points">
              <mxPoint x="930" y="1200" />
              <mxPoint x="930" y="720" />
            </Array>
          </mxGeometry>
        </mxCell>
        <mxCell id="WV2uRHjkIGPzRocQNmu5-77" value="1" style="edgeLabel;resizable=0;html=1;align=left;verticalAlign=top;" connectable="0" vertex="1" parent="WV2uRHjkIGPzRocQNmu5-76">
          <mxGeometry x="-1" relative="1" as="geometry">
            <mxPoint x="-27" y="-25" as="offset" />
          </mxGeometry>
        </mxCell>
        <mxCell id="WV2uRHjkIGPzRocQNmu5-78" value="&lt;div&gt;0..n&lt;/div&gt;" style="edgeLabel;resizable=0;html=1;align=right;verticalAlign=top;" connectable="0" vertex="1" parent="WV2uRHjkIGPzRocQNmu5-76">
          <mxGeometry x="1" relative="1" as="geometry">
            <mxPoint x="40" y="-29" as="offset" />
          </mxGeometry>
        </mxCell>
      </root>
    </mxGraphModel>
  </diagram>
</mxfile>
